<svg xmlns="http://www.w3.org/2000/svg" viewBox="0 0 472 507"><g fill="#666"><path d="m463.74 329.156-14.766-11.104v-104.49c0-117.764-95.77-213.566-213.48-213.566C117.79-.004 22.03 95.798 22.03 213.56v104.503l-14.655 11.07C2.753 332.55 0 338.023 0 343.8v93.128c0 5.754 2.766 11.194 7.328 14.532l22.218 16.758c5.338 3.956 12.205 4.91 19.105 1.674 6.25-3.17 10.126-9.418 10.126-16.32l-.18-240.01c0-97.6 79.353-176.994 176.9-176.994 97.59 0 176.977 79.393 176.977 176.982l-.214 240.023c0 6.867 3.865 13.116 10.25 16.398 2.583 1.226 5.36 1.867 8.01 1.867 3.968 0 7.767-1.248 11.003-3.653l22.173-16.69c4.597-3.394 7.34-8.834 7.34-14.566V343.8c0-5.743-2.732-11.216-7.295-14.644"></path><path d="M311.45 327.224c0-19.972 16.15-36.123 36.12-36.123h9.507c19.936 0 36.12 16.152 36.12 36.124v142.872c0 19.983-16.184 36.134-36.12 36.134h-9.507c-19.97 0-36.12-16.15-36.12-36.134V327.224zm-233.985-.084c0-19.982 16.15-36.122 36.12-36.122h9.507c19.936 0 36.12 16.14 36.12 36.123v142.873c0 19.983-16.184 36.133-36.12 36.133h-9.507c-19.97 0-36.12-16.15-36.12-36.133V327.14z"></path></g></svg>